<?xml version="1.0" encoding="utf-8"?>
<!-- Generator: Adobe Illustrator 15.1.0, SVG Export Plug-In  -->
<!DOCTYPE svg PUBLIC "-//W3C//DTD SVG 1.1//EN" "http://www.w3.org/Graphics/SVG/1.1/DTD/svg11.dtd" [
	<!ENTITY ns_flows "http://ns.adobe.com/Flows/1.0/">
]>
<svg version="1.1"
	 xmlns="http://www.w3.org/2000/svg" xmlns:xlink="http://www.w3.org/1999/xlink" xmlns:a="http://ns.adobe.com/AdobeSVGViewerExtensions/3.0/"
	 x="0px" y="0px" width="19px" height="19px" viewBox="0 0 19 19" overflow="visible" enable-background="new 0 0 19 19"
	 xml:space="preserve">
<defs>
</defs>
<path fill="#8A8B8E" d="M8.144,8.143H5.429V5.429H2.715V2.714H0V0h2.715v2.714h2.714v2.714h2.715V8.143h2.715v2.714h2.715v2.715
	h2.715v2.715H19V19h-2.712v-2.714h-2.715V13.57h-2.714v-2.713H8.144V8.143z M0,16.286h2.715V19H0V16.286z M2.715,13.57h2.714v2.716
	H2.715V13.57z M5.429,10.857h2.715v2.713H5.429V10.857z M13.573,8.143h-2.714V5.429h2.714V8.143z M16.288,5.429h-2.715V2.714h2.715
	V5.429z M19,2.714h-2.712V0H19V2.714z"/>
</svg>
